<svg id="svg" version="1.1" xmlns="http://www.w3.org/2000/svg" xmlns:xlink="http://www.w3.org/1999/xlink" width="400" height="129.00390625" viewBox="0, 0, 400,129.00390625"><g id="svgg"><path id="path0" d="M51.583 3.828 C 37.554 6.654,22.798 12.679,6.938 22.057 L 3.792 23.917 3.890 29.500 C 4.706 76.348,23.002 112.936,51.417 124.543 C 54.569 125.831,54.205 125.804,56.455 124.912 C 85.933 113.221,104.968 74.717,104.998 26.716 L 105.000 24.016 104.292 23.533 C 94.187 16.648,74.640 8.065,61.750 4.853 C 55.514 3.299,54.643 3.211,51.583 3.828 M56.076 18.389 C 61.145 23.325,67.177 26.297,70.508 25.498 C 73.029 24.893,75.648 26.385,75.664 28.436 C 75.671 29.331,77.171 30.275,78.262 30.070 C 78.764 29.976,78.847 30.013,78.993 30.400 C 79.275 31.139,80.158 31.446,81.038 31.110 C 82.000 30.742,82.140 30.758,82.369 31.262 C 82.479 31.503,83.042 31.974,83.660 32.341 C 84.999 33.136,85.960 34.110,86.647 35.366 C 87.316 36.589,87.302 36.636,86.507 35.840 C 85.969 35.302,84.735 34.500,84.446 34.500 C 84.408 34.500,84.342 35.231,84.298 36.125 C 84.218 37.777,83.884 38.807,83.262 39.323 C 83.032 39.514,83.000 39.468,83.000 38.942 C 83.000 38.479,82.944 38.365,82.750 38.440 C 82.545 38.518,82.500 38.355,82.500 37.528 C 82.500 36.216,82.426 36.197,81.066 37.150 C 79.524 38.232,78.468 38.517,79.515 37.569 C 80.063 37.074,80.282 36.593,79.857 36.821 C 78.676 37.452,78.405 37.256,79.318 36.431 C 80.661 35.215,77.752 35.462,75.767 36.732 L 74.850 37.318 74.423 36.414 C 74.023 35.569,73.968 35.520,73.580 35.668 C 72.496 36.080,71.833 36.607,71.833 37.056 C 71.833 37.258,72.990 37.500,73.952 37.500 C 75.094 37.500,75.589 37.670,76.018 38.209 C 76.283 38.542,76.287 38.540,76.396 38.106 C 76.457 37.864,76.579 37.667,76.667 37.667 C 76.901 37.667,78.243 39.422,78.792 40.446 L 79.263 41.323 79.789 41.003 C 80.159 40.777,80.376 40.470,80.519 39.966 C 80.814 38.929,80.909 38.901,81.258 39.748 C 81.454 40.222,81.652 40.477,81.786 40.426 C 81.935 40.369,82.004 40.531,82.013 40.964 C 82.020 41.304,82.064 41.490,82.110 41.375 C 82.545 40.298,82.647 43.005,82.222 44.323 C 81.662 46.058,79.179 48.035,79.658 46.364 C 79.797 45.878,79.784 45.848,79.499 46.000 C 79.035 46.249,79.013 46.218,79.189 45.581 C 79.504 44.438,78.477 44.369,74.333 45.253 C 74.036 45.317,74.139 45.200,74.693 44.847 C 75.631 44.249,75.897 43.908,75.317 44.048 C 75.097 44.101,74.617 44.195,74.250 44.258 L 73.583 44.372 74.599 43.706 C 76.103 42.721,76.083 42.628,74.231 42.019 C 72.778 41.542,72.610 41.519,72.100 41.732 C 71.628 41.929,71.416 41.929,70.654 41.732 C 70.163 41.604,69.609 41.542,69.423 41.593 C 69.236 41.643,68.456 41.882,67.690 42.123 C 65.259 42.887,63.271 42.082,62.117 39.865 C 61.138 37.985,61.123 37.124,62.051 36.029 C 62.542 35.451,62.545 35.440,62.103 35.833 C 61.569 36.308,61.135 37.090,60.821 38.140 C 60.626 38.792,60.563 38.854,60.178 38.772 C 59.942 38.722,58.850 38.477,57.750 38.228 C 53.493 37.263,46.645 37.589,42.500 38.954 C 32.944 42.102,26.446 51.344,26.052 62.351 C 25.834 68.429,26.573 71.067,30.498 78.227 C 31.403 79.878,31.104 79.763,29.152 77.707 C 26.733 75.159,24.812 72.075,22.792 67.500 L 22.535 66.917 22.351 67.386 C 22.250 67.644,22.166 68.056,22.164 68.303 C 22.155 69.870,21.028 68.064,20.646 65.870 C 20.203 63.322,21.099 58.880,23.106 53.684 C 23.990 51.395,23.976 51.361,22.710 52.743 C 21.544 54.016,21.501 54.032,21.497 53.208 C 21.496 52.743,21.454 52.647,21.333 52.833 C 20.578 54.002,21.433 49.631,22.337 47.701 C 23.043 46.195,23.175 45.564,22.750 45.727 C 22.571 45.795,22.500 45.711,22.500 45.430 C 22.500 45.005,22.288 44.875,20.286 44.077 C 19.372 43.713,18.992 43.439,18.309 42.654 C 17.728 41.986,17.252 41.612,16.785 41.456 C 16.412 41.332,16.054 41.122,15.990 40.990 C 15.699 40.398,15.520 39.848,15.320 38.942 C 15.061 37.763,14.766 37.531,13.308 37.357 L 12.250 37.231 13.231 37.001 C 14.352 36.737,14.153 36.532,12.758 36.512 C 11.614 36.495,11.989 36.166,13.285 36.049 C 15.046 35.889,16.602 36.829,17.472 38.578 C 17.991 39.619,19.618 40.833,20.496 40.833 C 20.786 40.833,20.684 39.957,20.352 39.594 C 19.228 38.365,18.567 35.401,19.131 34.125 C 19.514 33.259,19.520 33.265,18.230 33.072 C 17.607 32.978,17.495 32.921,17.751 32.824 C 18.066 32.705,18.278 32.718,19.246 32.919 C 19.548 32.981,19.634 32.943,19.570 32.776 C 19.472 32.520,18.436 32.167,17.782 32.167 C 17.546 32.167,17.307 32.092,17.250 32.000 C 17.116 31.782,17.610 31.789,18.682 32.019 C 20.345 32.375,22.709 35.732,21.517 36.044 C 20.943 36.194,20.847 36.661,21.148 37.847 C 21.726 40.133,22.333 40.365,22.333 38.301 C 22.333 36.052,22.723 35.244,23.613 35.650 C 24.699 36.145,25.090 35.365,24.214 34.451 C 23.698 33.913,23.659 33.830,24.000 34.001 C 24.363 34.182,24.341 34.127,23.833 33.577 L 23.250 32.946 24.061 33.515 C 25.009 34.179,25.628 34.871,25.939 35.614 C 26.062 35.905,26.238 36.191,26.331 36.248 C 27.048 36.692,26.213 38.667,25.308 38.667 C 24.676 38.667,24.278 39.300,24.292 40.279 C 24.309 41.381,24.483 41.458,25.598 40.854 C 26.767 40.221,26.826 40.253,26.082 41.123 C 24.755 42.673,26.314 41.801,28.083 40.004 C 29.422 38.644,29.408 38.522,27.999 39.251 C 27.223 39.652,27.410 39.271,28.375 38.484 C 29.789 37.332,29.839 37.350,27.732 38.260 C 26.837 38.646,26.909 38.513,28.175 37.433 C 32.065 34.116,37.553 31.766,43.917 30.694 L 45.750 30.384 44.661 30.266 C 43.190 30.106,42.925 29.908,43.992 29.767 C 44.911 29.645,44.994 29.344,44.115 29.317 C 43.622 29.301,42.598 29.054,42.872 29.017 C 44.794 28.754,51.697 27.354,52.917 26.978 C 55.391 26.217,55.363 26.245,54.336 25.554 C 52.678 24.438,49.578 21.147,49.630 20.560 C 49.637 20.481,49.524 20.285,49.378 20.124 C 48.857 19.548,49.274 19.712,50.833 20.694 C 51.704 21.243,53.449 22.259,54.711 22.951 C 56.509 23.936,56.967 24.256,56.825 24.426 C 56.640 24.649,57.177 25.100,57.383 24.895 C 57.434 24.843,57.822 25.039,58.244 25.329 C 59.276 26.039,61.117 26.933,61.833 27.072 C 62.411 27.184,62.405 27.175,61.333 26.233 C 57.766 23.099,54.532 19.269,53.357 16.789 C 52.303 14.565,52.335 14.440,53.600 15.833 C 54.225 16.521,55.339 17.671,56.076 18.389 M72.509 29.428 C 72.846 29.834,73.598 30.167,74.179 30.167 C 74.963 30.167,74.535 29.749,73.419 29.424 C 72.315 29.104,72.240 29.104,72.509 29.428 M42.684 40.256 C 42.031 40.999,42.037 41.037,42.750 40.739 C 43.553 40.404,43.526 40.454,41.872 42.381 C 37.868 47.046,36.127 50.148,38.114 49.079 C 38.448 48.899,38.983 48.401,39.302 47.973 L 39.884 47.195 40.677 48.063 C 44.813 52.588,61.042 50.184,67.320 44.116 C 67.979 43.479,69.570 42.500,69.946 42.500 C 70.014 42.500,69.738 42.837,69.333 43.250 C 68.510 44.089,68.542 44.156,69.523 43.655 C 70.621 43.095,70.448 43.340,68.210 45.518 C 62.775 50.806,56.664 53.073,46.249 53.663 C 41.412 53.937,40.763 54.282,42.801 55.492 C 48.187 58.692,56.189 58.317,64.318 54.483 C 66.716 53.352,66.639 53.553,64.008 55.290 C 62.645 56.190,62.782 56.182,64.780 55.249 C 66.595 54.401,66.551 54.667,64.673 55.908 C 58.240 60.159,49.065 61.001,40.250 58.152 C 36.963 57.089,36.503 57.639,38.190 60.613 C 40.794 65.203,42.966 67.319,46.623 68.827 C 47.378 69.138,47.972 69.417,47.942 69.447 C 47.883 69.506,46.296 69.225,45.750 69.060 C 45.012 68.836,45.732 69.240,47.033 69.780 L 48.417 70.354 47.417 70.244 C 42.536 69.710,36.664 64.482,34.987 59.180 C 34.899 58.902,34.882 59.073,34.940 59.667 C 35.230 62.659,36.868 65.356,41.148 69.888 C 42.055 70.847,42.479 71.410,42.353 71.488 C 42.217 71.572,42.259 71.698,42.492 71.910 C 42.980 72.351,42.773 72.497,41.615 72.528 C 40.889 72.548,40.781 72.574,41.250 72.615 C 43.533 72.819,44.312 73.264,45.164 74.857 C 45.834 76.109,45.965 78.046,45.457 79.208 C 45.307 79.552,45.255 79.833,45.342 79.833 C 45.429 79.833,45.500 80.056,45.500 80.328 C 45.500 80.699,45.562 80.799,45.750 80.727 C 45.929 80.658,46.000 80.743,46.001 81.024 C 46.001 81.240,46.150 81.660,46.332 81.958 C 46.513 82.256,46.747 82.839,46.851 83.253 C 47.169 84.515,47.923 84.397,48.795 82.951 C 49.578 81.651,49.597 81.539,49.130 81.032 C 47.376 79.129,48.972 76.952,52.500 76.437 L 53.250 76.327 52.417 76.723 C 51.958 76.941,51.440 77.280,51.265 77.477 L 50.947 77.834 51.432 77.668 C 52.206 77.402,53.501 77.197,53.403 77.356 C 53.354 77.435,53.217 77.500,53.099 77.500 C 52.819 77.500,51.500 78.455,51.500 78.657 C 51.500 78.742,51.743 78.836,52.040 78.864 C 52.417 78.901,52.599 79.014,52.642 79.238 C 52.675 79.415,52.815 79.672,52.951 79.809 C 53.281 80.138,53.127 81.094,52.566 82.201 L 52.140 83.042 52.645 82.682 C 54.113 81.637,54.883 80.348,54.375 79.787 C 54.094 79.476,54.104 79.447,54.633 79.005 C 56.003 77.860,58.526 77.691,59.695 78.665 C 60.079 78.985,60.070 78.985,58.925 78.663 C 57.881 78.370,57.730 78.363,57.384 78.590 C 56.873 78.924,56.854 78.915,58.043 78.928 C 58.780 78.936,59.294 79.048,59.808 79.314 C 60.791 79.824,60.594 79.911,59.262 79.556 C 57.888 79.189,57.627 79.313,57.470 80.410 C 57.194 82.331,56.078 83.687,53.882 84.772 C 52.100 85.653,52.086 85.995,53.833 85.995 C 54.799 85.995,55.352 85.746,56.599 84.750 C 57.981 83.646,61.366 84.337,62.199 85.893 C 62.330 86.139,62.318 86.179,62.142 86.078 C 62.018 86.007,62.137 86.185,62.406 86.474 C 63.009 87.122,62.958 87.124,61.640 86.500 C 59.964 85.707,59.201 85.922,58.061 87.509 L 57.449 88.360 56.516 88.254 C 55.792 88.172,55.341 88.230,54.500 88.511 C 53.238 88.934,52.224 88.955,50.531 88.594 C 48.552 88.171,47.667 88.478,47.667 89.586 C 47.667 89.833,47.595 89.975,47.500 89.917 C 47.408 89.860,47.333 89.668,47.333 89.490 C 47.333 89.312,47.267 89.167,47.186 89.167 C 47.025 89.167,46.215 85.997,46.100 84.917 C 46.060 84.550,46.058 85.075,46.095 86.083 C 46.164 87.967,46.696 90.411,47.503 92.559 C 49.524 97.933,59.281 99.070,68.982 95.062 C 74.597 92.742,78.423 87.909,81.169 79.667 C 84.209 70.540,82.779 68.399,73.801 68.633 L 71.019 68.705 70.843 69.211 C 70.746 69.489,70.667 69.747,70.667 69.784 C 70.667 70.050,72.402 70.536,73.755 70.651 C 75.640 70.810,75.790 70.896,74.722 71.208 L 73.917 71.443 74.986 71.574 C 76.245 71.729,76.118 71.867,74.264 72.363 C 68.775 73.833,63.798 71.784,61.370 67.056 C 60.246 64.866,60.273 64.695,61.509 66.193 C 63.602 68.730,65.248 69.761,67.002 69.634 C 68.401 69.533,69.308 68.559,68.301 68.240 C 65.499 67.350,62.979 63.880,63.011 60.954 C 63.021 60.036,63.045 59.965,63.215 60.333 C 63.321 60.563,63.458 60.788,63.520 60.833 C 63.582 60.879,63.722 61.254,63.831 61.667 C 64.659 64.795,67.805 65.901,74.071 65.268 C 80.642 64.604,82.813 65.065,83.936 67.362 C 85.762 71.095,85.750 71.065,85.745 72.017 C 85.741 72.701,85.618 73.186,85.286 73.824 C 85.037 74.305,84.833 74.709,84.833 74.724 C 84.833 74.738,85.194 74.725,85.636 74.694 C 86.078 74.664,86.659 74.664,86.928 74.694 L 87.417 74.750 86.833 75.122 L 86.250 75.494 87.000 75.501 L 87.750 75.507 87.333 75.829 C 86.129 76.760,85.065 76.850,85.097 76.020 C 85.104 75.826,85.048 75.667,84.972 75.667 C 84.896 75.667,84.831 75.498,84.828 75.292 C 84.817 74.443,84.527 75.486,84.260 77.333 C 83.587 81.994,83.352 82.679,81.834 84.389 C 80.338 86.074,80.344 86.026,81.553 86.542 C 82.120 86.784,82.771 87.009,83.000 87.042 L 83.417 87.103 82.958 87.328 C 82.332 87.636,82.383 87.802,83.125 87.872 L 83.750 87.931 82.917 88.326 C 81.643 88.930,80.687 88.969,80.059 88.441 L 79.550 88.012 79.036 89.798 C 78.753 90.780,78.402 92.183,78.256 92.916 C 77.795 95.230,76.864 96.115,74.054 96.909 C 73.153 97.164,71.877 97.523,71.218 97.707 C 70.039 98.037,70.024 98.049,70.265 98.415 C 70.507 98.786,71.667 103.167,71.522 103.167 C 70.946 103.167,68.693 101.021,68.654 100.437 C 68.557 98.970,68.383 98.977,66.303 100.541 C 63.355 102.756,62.544 102.995,60.076 102.372 C 57.901 101.824,57.196 101.750,57.640 102.119 C 58.813 103.093,58.542 104.500,56.902 105.949 C 56.328 106.456,55.769 107.087,55.659 107.352 C 55.391 107.999,55.231 107.958,55.107 107.208 C 54.784 105.257,55.077 103.693,55.956 102.665 C 56.625 101.885,56.577 101.877,54.513 102.419 C 53.231 102.755,52.828 102.800,52.315 102.662 C 51.694 102.494,51.542 102.347,50.400 100.792 C 49.446 99.493,48.358 99.091,48.990 100.271 C 49.641 101.486,49.353 102.054,47.544 103.129 C 46.497 103.751,45.723 104.416,45.078 105.250 C 44.836 105.563,44.823 105.534,44.870 104.786 C 44.909 104.165,44.879 104.046,44.733 104.245 C 44.426 104.665,44.389 104.547,44.510 103.525 C 44.716 101.770,45.129 100.891,46.372 99.562 L 46.858 99.042 45.601 98.924 C 43.768 98.752,43.074 98.021,42.441 95.596 C 42.125 94.385,41.809 94.043,39.814 92.744 C 36.771 90.763,36.043 89.221,36.907 86.588 C 37.612 84.441,36.754 83.167,34.602 83.167 C 33.635 83.167,33.464 83.043,33.775 82.568 C 34.030 82.179,34.025 82.167,33.603 82.167 C 33.083 82.167,33.071 82.104,33.478 81.526 C 34.064 80.694,34.508 79.663,35.327 77.235 C 36.449 73.910,36.594 73.725,38.553 73.138 C 39.442 72.871,39.486 72.841,38.876 72.916 C 36.634 73.193,35.441 74.386,34.501 77.288 C 33.363 80.801,33.224 80.936,32.414 79.328 C 24.309 63.234,27.995 47.337,41.435 40.421 C 43.201 39.512,43.354 39.492,42.684 40.256 M70.991 47.126 C 70.771 47.377,70.215 47.991,69.754 48.490 L 68.917 49.396 69.583 48.922 C 69.950 48.661,70.438 48.287,70.667 48.091 C 72.261 46.724,71.773 47.593,69.914 49.432 C 65.610 53.691,58.842 56.348,50.833 56.921 C 47.750 57.142,43.254 56.051,44.333 55.343 C 44.547 55.203,44.535 55.145,44.249 54.934 C 43.496 54.379,44.139 54.256,48.383 54.142 C 58.547 53.870,65.100 51.779,70.667 47.030 C 71.365 46.434,71.547 46.488,70.991 47.126 M68.027 57.572 C 71.977 58.345,75.765 61.160,76.227 63.667 C 76.269 63.896,76.361 64.228,76.431 64.404 C 76.538 64.673,76.507 64.703,76.237 64.591 C 73.555 63.478,70.799 63.517,71.262 64.662 C 71.319 64.802,71.404 65.010,71.450 65.125 C 71.744 65.844,68.052 65.126,66.698 64.201 C 65.389 63.307,64.912 62.481,66.091 63.151 C 66.187 63.205,66.110 63.100,65.919 62.917 C 64.922 61.957,65.094 61.856,66.493 62.580 C 67.612 63.159,70.037 62.623,70.631 61.665 C 71.036 61.011,69.646 60.083,66.750 59.074 C 64.212 58.189,64.181 58.169,65.347 58.158 L 66.250 58.149 65.250 57.753 L 64.250 57.357 65.527 57.345 C 66.229 57.339,67.354 57.441,68.027 57.572 M40.908 59.125 C 44.146 62.128,49.099 63.615,56.075 63.677 C 57.527 63.690,57.108 63.920,55.309 64.097 C 53.123 64.312,53.164 64.471,55.408 64.486 C 57.833 64.502,58.008 64.699,55.848 64.983 C 50.316 65.709,44.643 64.503,41.323 61.895 C 40.171 60.990,39.117 59.656,39.260 59.284 C 39.313 59.146,39.276 58.984,39.178 58.924 C 39.080 58.863,39.000 58.668,39.000 58.490 C 39.000 57.835,39.806 58.103,40.908 59.125 M86.500 66.987 C 86.500 67.302,85.625 68.167,85.306 68.167 C 84.764 68.167,85.014 67.633,85.751 67.216 C 86.521 66.780,86.500 66.786,86.500 66.987 M86.667 68.013 C 86.667 68.299,85.686 69.201,85.458 69.125 C 84.999 68.972,85.157 68.513,85.781 68.183 C 86.518 67.795,86.667 67.766,86.667 68.013 M39.289 77.954 C 38.534 78.255,38.523 78.350,39.179 78.902 C 39.874 79.486,40.793 79.492,41.335 78.914 C 42.013 78.193,40.486 77.477,39.289 77.954 M37.891 78.863 C 35.912 81.014,37.287 82.930,40.394 82.350 C 41.878 82.073,42.237 81.856,41.233 81.844 C 39.819 81.826,38.720 80.753,38.365 79.042 L 38.247 78.476 37.891 78.863 M35.297 83.769 C 35.905 84.162,36.568 85.671,36.437 86.366 C 36.290 87.148,35.873 87.477,33.940 88.336 C 32.899 88.798,31.988 89.343,31.453 89.824 L 30.608 90.583 30.717 90.083 C 30.776 89.808,30.878 89.396,30.942 89.167 C 31.056 88.760,31.048 88.762,30.603 89.250 C 30.113 89.789,30.118 89.839,30.507 88.338 C 31.336 85.135,33.791 82.794,35.297 83.769 M41.128 93.806 C 41.520 94.055,42.000 95.233,42.000 95.948 C 42.000 96.810,41.912 96.877,39.500 97.844 C 38.496 98.246,37.519 98.763,37.208 99.055 C 36.584 99.644,36.489 99.415,36.924 98.373 L 37.182 97.757 36.672 98.245 L 36.161 98.734 36.494 97.767 C 37.379 95.196,39.910 93.033,41.128 93.806 " stroke="none" fill="#eb1c24" fill-rule="evenodd"></path><path id="path1" d="M51.583 0.270 C 47.881 1.030,45.481 1.604,42.500 2.443 C 39.498 3.287,33.267 5.362,31.583 6.078 C 31.308 6.195,30.708 6.429,30.250 6.597 C 29.792 6.766,29.229 7.000,29.000 7.118 C 28.771 7.235,28.523 7.332,28.449 7.332 C 28.333 7.333,27.756 7.570,26.417 8.167 C 26.233 8.248,25.708 8.476,25.250 8.673 C 24.792 8.870,23.879 9.287,23.221 9.599 C 22.564 9.911,21.974 10.167,21.911 10.167 C 21.780 10.167,14.448 13.836,12.917 14.667 C 12.367 14.966,11.467 15.450,10.917 15.744 C 9.738 16.371,4.877 19.197,3.917 19.812 C 2.553 20.685,1.177 21.410,0.292 21.721 C -0.059 21.843,-0.141 31.336,0.170 35.667 C 1.033 47.665,2.161 56.299,3.665 62.417 C 3.755 62.783,4.017 63.908,4.247 64.917 C 4.477 65.925,4.738 67.012,4.826 67.333 C 4.915 67.654,5.182 68.629,5.418 69.500 C 6.597 73.840,8.805 80.453,9.852 82.783 C 10.025 83.167,10.167 83.527,10.167 83.583 C 10.167 83.681,10.518 84.500,11.168 85.917 C 11.336 86.283,11.847 87.410,12.305 88.420 C 13.835 91.802,17.507 98.672,17.855 98.806 C 17.935 98.836,18.000 98.931,18.000 99.017 C 18.000 99.236,21.676 104.737,22.413 105.621 C 22.507 105.733,22.733 106.020,22.917 106.259 C 23.100 106.498,23.328 106.781,23.423 106.888 C 23.518 106.996,23.818 107.381,24.089 107.745 C 24.361 108.108,24.696 108.529,24.833 108.680 C 24.971 108.831,25.458 109.396,25.917 109.935 C 27.405 111.688,30.737 115.106,32.102 116.281 C 33.066 117.110,34.400 118.269,34.565 118.420 C 36.991 120.649,43.591 124.759,47.686 126.591 C 52.275 128.644,54.008 129.165,54.891 128.758 C 55.180 128.625,55.904 128.334,56.500 128.113 C 60.209 126.736,67.986 122.615,69.438 121.259 C 69.541 121.162,69.796 120.971,70.004 120.833 C 70.621 120.426,73.552 118.147,74.606 117.255 C 75.757 116.281,80.984 111.083,81.901 110.000 C 82.251 109.587,82.772 108.958,83.060 108.600 C 83.348 108.243,83.778 107.718,84.016 107.433 C 85.584 105.560,88.942 100.751,90.080 98.750 C 90.341 98.292,90.598 97.879,90.652 97.833 C 90.753 97.748,90.899 97.498,91.625 96.180 C 91.856 95.760,92.281 95.004,92.569 94.500 C 93.067 93.628,95.667 88.404,96.218 87.167 C 96.361 86.846,96.788 85.833,97.167 84.917 C 97.546 84.000,97.954 83.025,98.074 82.750 C 98.409 81.983,99.767 78.244,100.253 76.750 C 100.491 76.017,100.754 75.267,100.837 75.083 C 100.920 74.900,101.100 74.337,101.237 73.833 C 101.373 73.329,101.718 72.129,102.002 71.167 C 103.120 67.379,104.314 62.379,105.086 58.250 C 106.139 52.621,106.973 46.074,107.421 39.917 C 107.561 37.992,107.708 36.154,107.748 35.833 C 107.788 35.512,107.872 32.250,107.936 28.583 L 108.052 21.917 107.484 21.621 C 106.873 21.303,106.662 21.178,103.802 19.432 C 101.723 18.162,98.139 16.085,96.583 15.249 C 96.033 14.953,94.983 14.389,94.250 13.996 C 84.576 8.803,71.843 3.783,62.917 1.644 C 62.183 1.468,61.096 1.207,60.500 1.065 C 56.407 0.087,53.666 -0.158,51.583 0.270 M57.206 3.844 C 71.379 6.689,92.585 15.557,104.292 23.533 L 105.000 24.016 104.998 26.716 C 104.968 74.717,85.933 113.221,56.455 124.912 C 54.205 125.804,54.569 125.831,51.417 124.543 C 23.002 112.936,4.706 76.348,3.890 29.500 L 3.792 23.917 6.938 22.057 C 22.798 12.679,37.554 6.654,51.583 3.828 C 54.506 3.239,54.187 3.238,57.206 3.844 M52.580 15.000 C 53.162 17.099,57.643 22.439,62.083 26.323 L 63.083 27.198 62.223 27.108 C 61.317 27.014,59.545 26.224,58.265 25.344 L 57.520 24.831 56.784 25.328 C 55.074 26.482,52.464 27.269,47.092 28.251 C 44.805 28.669,42.907 29.037,42.876 29.069 C 42.809 29.135,43.544 29.272,44.750 29.417 C 48.692 29.892,49.323 30.226,46.583 30.386 C 40.123 30.765,32.632 33.632,28.175 37.433 C 26.744 38.654,26.767 38.672,28.710 37.842 C 31.238 36.762,31.224 36.885,28.506 39.625 C 23.682 44.489,21.179 48.750,21.169 52.113 L 21.167 52.975 22.125 51.964 C 23.047 50.990,24.249 50.000,24.507 50.000 C 24.576 50.000,24.258 50.881,23.800 51.958 C 21.385 57.647,20.159 63.073,20.651 65.897 C 20.963 67.690,21.667 68.810,21.667 67.515 C 21.667 66.988,21.977 66.000,22.142 66.000 C 22.202 66.000,22.430 66.469,22.647 67.042 C 23.925 70.406,26.206 74.089,28.586 76.628 C 30.347 78.507,30.945 78.921,30.297 77.813 C 26.382 71.115,25.363 67.650,25.551 61.667 C 25.914 50.123,32.964 40.452,43.029 37.692 C 47.273 36.529,52.861 36.376,57.294 37.302 C 58.694 37.594,59.906 37.833,59.989 37.833 C 60.072 37.833,60.270 37.440,60.430 36.958 C 61.124 34.865,62.753 33.751,64.612 34.100 L 65.190 34.208 64.285 34.576 C 61.274 35.800,60.518 37.928,62.378 39.946 C 63.802 41.491,65.332 41.830,67.518 41.087 C 68.624 40.711,69.026 40.649,69.727 40.744 C 70.795 40.888,71.272 40.888,71.951 40.744 C 72.329 40.664,72.855 40.758,73.745 41.065 C 74.437 41.304,75.103 41.500,75.226 41.500 C 76.407 41.500,76.044 42.755,74.583 43.717 C 73.641 44.338,73.617 44.369,74.167 44.266 C 78.988 43.358,79.704 43.534,79.204 45.504 C 79.000 46.306,79.073 46.316,80.102 45.625 C 81.311 44.814,81.903 43.556,81.961 41.679 C 82.003 40.319,81.991 40.268,81.732 40.625 C 81.319 41.193,81.167 41.081,81.164 40.208 C 81.163 39.773,81.092 39.306,81.006 39.171 C 80.834 38.898,80.872 38.831,80.495 40.055 C 80.369 40.465,80.114 40.805,79.781 41.008 L 79.263 41.323 78.792 40.446 C 78.243 39.422,76.901 37.667,76.667 37.667 C 76.579 37.667,76.457 37.864,76.396 38.106 C 76.287 38.540,76.283 38.542,76.018 38.209 C 75.584 37.664,75.091 37.500,73.886 37.500 C 71.275 37.499,70.486 36.028,72.535 34.982 C 73.514 34.482,73.759 34.556,74.001 35.421 C 74.275 36.401,74.259 36.397,75.375 35.740 C 78.292 34.022,80.893 34.533,79.250 36.500 C 78.929 36.884,78.667 37.230,78.667 37.268 C 78.667 37.466,79.910 36.773,80.813 36.072 C 81.419 35.601,81.898 35.337,81.981 35.429 C 82.264 35.740,82.500 36.740,82.500 37.622 C 82.500 39.838,83.710 37.525,83.807 35.126 C 83.843 34.232,83.904 33.500,83.943 33.500 C 84.217 33.500,85.435 34.276,85.993 34.807 C 86.777 35.553,86.805 35.543,86.268 34.705 C 85.716 33.845,84.767 32.992,83.571 32.281 C 83.014 31.949,82.472 31.488,82.366 31.256 C 82.140 30.758,81.998 30.743,81.038 31.110 C 80.159 31.445,79.275 31.139,78.995 30.403 C 78.847 30.014,78.768 29.981,78.207 30.074 C 76.854 30.299,75.524 29.139,75.168 27.425 C 74.834 25.813,72.586 24.889,70.499 25.505 C 66.833 26.588,59.618 22.459,53.600 15.833 C 52.798 14.950,52.499 14.705,52.580 15.000 M49.167 19.743 C 49.167 20.368,53.202 24.412,54.408 24.996 C 55.265 25.411,55.644 25.340,56.559 24.597 L 57.034 24.211 55.309 23.284 C 53.704 22.422,50.682 20.641,49.625 19.935 C 49.373 19.766,49.167 19.680,49.167 19.743 M72.842 28.424 C 74.066 28.758,74.408 28.997,74.647 29.683 C 74.846 30.253,74.063 30.386,73.200 29.928 C 72.699 29.662,71.112 27.880,71.514 28.034 C 71.653 28.087,72.251 28.263,72.842 28.424 M17.235 31.975 C 17.300 32.081,17.546 32.167,17.782 32.167 C 19.397 32.167,19.836 32.705,19.229 33.944 C 18.520 35.395,18.887 37.385,20.163 38.996 C 20.666 39.630,20.883 40.833,20.495 40.833 C 19.556 40.833,17.556 39.326,17.317 38.439 C 16.945 37.059,15.001 35.893,13.325 36.045 C 11.892 36.175,11.724 36.398,12.969 36.517 C 14.503 36.664,14.845 36.979,15.229 38.600 C 15.400 39.324,15.565 40.006,15.595 40.116 C 15.625 40.226,15.947 40.396,16.311 40.494 C 16.797 40.625,17.195 40.930,17.820 41.651 C 18.568 42.514,18.865 42.714,20.319 43.327 C 22.215 44.127,22.453 44.334,22.536 45.250 C 22.586 45.800,22.622 45.858,22.744 45.583 C 23.036 44.919,24.151 43.385,25.397 41.932 C 26.865 40.220,26.878 40.161,25.631 40.836 C 24.272 41.572,23.833 41.241,23.833 39.478 C 23.833 38.218,24.194 37.674,25.032 37.669 C 26.778 37.659,26.178 35.039,24.083 33.526 L 23.250 32.925 23.882 33.638 C 25.132 35.047,24.969 36.268,23.613 35.650 C 22.723 35.244,22.333 36.052,22.333 38.301 C 22.333 39.879,22.175 40.072,21.587 39.213 C 20.470 37.581,20.153 35.352,21.000 35.083 C 21.759 34.842,20.729 32.941,19.500 32.314 C 18.780 31.948,17.058 31.690,17.235 31.975 M41.435 40.421 C 29.985 46.313,25.293 59.157,29.777 72.333 C 30.793 75.317,32.589 79.500,32.854 79.500 C 33.083 79.500,33.599 78.348,34.125 76.663 C 35.360 72.710,36.264 72.125,42.167 71.463 C 42.552 71.420,42.476 71.303,41.167 69.912 C 36.751 65.221,34.980 62.224,34.730 59.016 L 34.645 57.917 35.044 58.852 C 37.338 64.218,41.832 68.271,46.563 69.242 C 48.278 69.594,48.289 69.513,46.623 68.827 C 42.885 67.286,40.794 65.217,38.022 60.313 C 36.084 56.885,36.564 56.057,39.862 57.142 C 48.901 60.119,58.778 59.139,64.958 54.654 C 66.525 53.518,66.423 53.490,64.318 54.483 C 56.076 58.370,48.120 58.700,42.626 55.381 C 39.855 53.708,40.841 53.006,46.417 52.681 C 54.326 52.221,59.730 50.681,64.500 47.528 C 65.774 46.686,70.105 42.716,69.935 42.546 C 69.774 42.385,68.022 43.436,67.320 44.116 C 61.038 50.187,44.813 52.588,40.673 48.059 L 39.876 47.186 39.353 47.914 C 38.727 48.786,37.806 49.400,37.344 49.254 C 36.016 48.832,37.734 45.863,42.308 40.677 C 43.376 39.467,43.321 39.451,41.435 40.421 M70.667 47.030 C 65.076 51.799,57.493 54.166,47.803 54.166 C 44.153 54.167,43.237 54.430,44.542 55.105 C 49.694 57.771,63.489 54.378,69.194 49.042 C 70.795 47.544,72.011 45.883,70.667 47.030 M64.353 57.408 C 64.394 57.449,65.363 57.793,66.505 58.172 C 70.141 59.377,71.548 60.670,70.476 61.821 C 69.621 62.738,67.559 63.131,66.493 62.580 C 65.431 62.031,65.146 61.971,65.377 62.347 C 65.995 63.357,68.322 64.333,70.109 64.333 L 71.158 64.333 71.058 63.834 C 70.811 62.595,73.659 62.459,75.873 63.604 L 76.344 63.847 76.098 63.259 C 74.671 59.844,70.198 57.333,65.541 57.333 C 64.846 57.333,64.311 57.367,64.353 57.408 M39.000 58.424 C 39.000 58.565,39.239 58.996,39.530 59.382 C 42.076 62.750,48.680 64.835,54.699 64.171 C 57.068 63.909,57.674 63.692,56.075 63.677 C 49.099 63.615,44.146 62.128,40.908 59.125 C 39.861 58.155,39.000 57.838,39.000 58.424 M63.011 60.929 C 62.984 63.371,64.648 65.758,67.239 66.995 C 69.293 67.975,69.158 69.478,67.002 69.634 C 65.248 69.761,63.602 68.730,61.509 66.193 C 60.361 64.801,60.230 64.895,61.101 66.486 C 63.665 71.170,68.641 72.910,74.637 71.219 C 75.792 70.894,75.665 70.812,73.755 70.651 C 71.033 70.421,69.949 69.681,70.354 68.330 L 70.563 67.633 74.573 67.702 C 79.789 67.792,80.916 68.189,81.950 70.303 C 84.424 75.359,78.132 89.864,71.833 93.624 C 65.446 97.437,55.288 98.647,50.836 96.126 C 47.298 94.123,45.500 89.607,45.500 82.728 C 45.500 81.136,45.466 79.833,45.424 79.833 C 45.383 79.833,44.851 80.206,44.242 80.661 C 40.183 83.695,34.900 82.410,36.726 78.833 C 37.716 76.892,40.245 76.237,41.345 77.636 C 42.363 78.930,40.410 79.976,39.109 78.833 C 38.362 78.178,38.272 78.201,38.381 79.016 C 38.679 81.237,42.280 81.662,44.125 79.694 C 45.359 78.378,45.686 75.480,44.750 74.154 C 43.801 72.811,42.153 72.407,39.653 72.904 C 36.795 73.473,36.494 73.773,35.336 77.207 C 34.509 79.661,34.066 80.692,33.478 81.526 C 33.059 82.121,33.077 82.167,33.731 82.167 C 36.437 82.167,37.738 83.988,36.904 86.608 C 36.117 89.080,36.601 90.094,39.381 91.792 C 41.163 92.882,41.908 93.701,42.252 94.951 C 42.967 97.546,43.180 97.751,45.451 98.013 C 48.606 98.376,49.093 98.637,50.712 100.833 C 51.514 101.922,52.047 102.015,54.237 101.447 C 56.322 100.907,57.562 100.884,59.372 101.353 C 62.088 102.057,62.879 101.828,66.116 99.400 C 68.781 97.401,69.242 97.169,72.009 96.427 C 74.977 95.630,75.837 95.270,76.526 94.532 C 77.451 93.543,77.480 93.477,77.911 91.400 C 78.727 87.467,79.664 85.335,81.480 83.280 C 82.770 81.820,83.196 80.756,83.502 78.234 C 83.868 75.206,84.015 74.563,84.617 73.333 C 85.510 71.512,85.483 70.759,84.448 68.500 C 82.825 64.961,81.427 64.525,74.071 65.268 C 67.685 65.913,64.810 64.847,63.582 61.378 C 63.052 59.881,63.023 59.858,63.011 60.929 M85.751 67.216 C 85.014 67.633,84.764 68.167,85.306 68.167 C 85.625 68.167,86.500 67.302,86.500 66.987 C 86.500 66.786,86.521 66.780,85.751 67.216 M84.944 74.778 C 84.594 75.128,84.847 75.667,85.360 75.667 C 85.817 75.667,87.333 74.957,87.333 74.743 C 87.333 74.622,85.068 74.655,84.944 74.778 M52.045 76.509 C 49.118 77.087,47.152 79.568,49.011 80.338 C 49.723 80.633,49.683 81.448,48.892 82.785 C 47.832 84.578,46.716 84.512,46.433 82.640 C 46.175 80.935,45.973 81.424,46.066 83.531 C 46.175 86.028,46.970 89.713,47.180 88.702 C 47.446 87.420,48.172 87.267,51.262 87.839 C 52.396 88.049,52.498 88.040,53.921 87.596 C 55.194 87.199,55.488 87.160,56.017 87.319 C 56.810 87.556,57.005 87.469,57.505 86.654 C 58.469 85.079,59.702 84.765,61.401 85.659 C 62.112 86.033,62.300 86.082,62.184 85.865 C 61.366 84.337,57.967 83.658,56.599 84.750 C 55.105 85.943,54.874 86.027,53.348 85.932 C 51.150 85.796,51.187 84.979,53.443 83.830 C 55.710 82.674,56.690 81.496,56.938 79.627 C 57.099 78.413,57.443 78.247,58.925 78.663 C 60.070 78.985,60.079 78.985,59.695 78.665 C 58.525 77.690,55.999 77.861,54.633 79.007 L 54.083 79.468 54.483 79.896 L 54.882 80.324 54.078 81.265 C 52.891 82.654,50.833 84.084,50.833 83.519 C 50.833 83.439,51.168 82.820,51.578 82.144 C 52.767 80.183,52.979 78.833,52.099 78.833 C 50.315 78.833,50.551 77.562,52.500 76.680 C 53.294 76.321,53.192 76.283,52.045 76.509 M33.349 83.894 C 32.126 84.829,30.932 86.695,30.507 88.338 C 30.400 88.748,30.272 89.233,30.222 89.417 C 30.159 89.643,30.353 89.522,30.822 89.040 C 31.295 88.556,32.082 88.065,33.299 87.494 C 34.280 87.033,35.196 86.596,35.333 86.521 C 35.738 86.302,36.096 85.088,35.909 84.565 C 35.507 83.434,34.348 83.131,33.349 83.894 M79.756 86.493 C 78.715 87.643,81.087 88.335,82.856 87.398 L 83.417 87.101 82.833 86.990 C 82.512 86.929,81.912 86.720,81.500 86.526 C 80.562 86.085,80.133 86.077,79.756 86.493 M38.594 94.682 C 37.344 95.851,36.958 96.418,36.493 97.771 L 36.159 98.742 36.788 98.149 C 37.204 97.757,38.077 97.287,39.369 96.760 C 40.610 96.255,41.356 95.857,41.415 95.671 C 42.105 93.497,40.472 92.924,38.594 94.682 M68.899 98.295 C 68.119 98.936,68.257 99.577,69.451 100.852 C 70.715 102.204,71.525 102.513,71.107 101.484 C 70.980 101.172,70.825 100.511,70.762 100.016 C 70.631 98.980,70.263 98.167,69.926 98.167 C 69.798 98.167,69.594 98.130,69.472 98.086 C 69.350 98.042,69.092 98.136,68.899 98.295 M46.392 99.542 C 45.129 100.891,44.717 101.761,44.510 103.525 C 44.376 104.656,44.443 104.712,44.965 103.907 C 45.175 103.583,45.887 102.974,46.548 102.552 C 48.817 101.106,49.251 100.409,48.488 99.439 C 47.970 98.781,47.062 98.825,46.392 99.542 M55.956 102.665 C 55.236 103.507,54.999 104.302,55.005 105.853 L 55.010 107.083 55.384 106.476 C 55.590 106.141,56.300 105.339,56.962 104.692 C 58.234 103.451,58.392 103.062,57.907 102.370 C 57.466 101.741,56.641 101.866,55.956 102.665 " stroke="none" fill="#e5e5e5" fill-rule="evenodd"></path><path id="path2" d="M54.839 19.167 C 56.041 20.950,60.931 26.068,62.277 26.949 C 62.864 27.334,62.967 27.069,62.400 26.629 C 60.580 25.215,57.382 22.055,55.677 19.986 C 54.583 18.659,54.330 18.411,54.839 19.167 M50.836 22.238 C 52.428 24.033,54.751 26.000,55.280 26.000 C 55.610 26.000,57.000 25.174,57.000 24.979 C 57.000 24.643,56.499 24.658,56.025 25.008 C 55.088 25.700,54.048 25.185,51.502 22.768 C 50.816 22.116,50.516 21.878,50.836 22.238 M71.870 28.542 C 72.018 28.769,72.533 29.058,73.182 29.276 C 73.769 29.473,74.344 29.720,74.458 29.824 C 74.734 30.075,74.721 29.922,74.416 29.331 C 74.233 28.978,73.972 28.796,73.457 28.665 C 73.068 28.565,72.533 28.412,72.267 28.325 C 71.606 28.108,71.593 28.115,71.870 28.542 M396.833 29.190 C 395.779 29.266,393.042 29.447,390.750 29.592 C 384.215 30.005,378.470 30.663,373.167 31.605 C 371.395 31.920,371.453 31.876,371.009 33.250 C 370.664 34.317,369.669 37.108,369.356 37.886 C 369.252 38.144,369.166 38.406,369.165 38.469 C 369.165 38.532,368.902 39.278,368.582 40.127 C 367.751 42.331,367.440 42.159,371.083 41.510 C 372.183 41.314,373.608 41.080,374.250 40.991 C 374.892 40.903,375.867 40.755,376.417 40.663 C 379.361 40.173,386.480 39.562,392.000 39.324 C 397.103 39.105,396.511 39.275,396.980 37.895 C 397.194 37.265,397.473 36.514,397.601 36.225 C 397.729 35.936,397.833 35.643,397.833 35.575 C 397.833 35.448,398.921 32.360,399.180 31.750 C 399.462 31.086,400.000 29.423,400.000 29.214 C 400.000 28.977,399.812 28.975,396.833 29.190 M147.417 30.770 C 147.143 31.584,146.825 32.438,146.710 32.667 C 146.596 32.896,146.502 33.153,146.501 33.237 C 146.500 33.415,144.246 39.655,143.898 40.442 C 143.771 40.731,143.667 41.047,143.667 41.145 C 143.667 41.242,143.560 41.568,143.429 41.869 C 143.298 42.170,142.654 43.917,141.998 45.750 C 141.342 47.583,140.705 49.346,140.583 49.667 C 140.461 49.987,139.825 51.750,139.169 53.583 C 138.512 55.417,137.868 57.163,137.738 57.464 C 137.607 57.765,137.500 58.091,137.500 58.189 C 137.500 58.286,137.396 58.603,137.268 58.891 C 136.947 59.619,134.667 65.912,134.667 66.071 C 134.667 66.142,134.563 66.436,134.435 66.725 C 134.210 67.237,132.434 72.119,130.334 78.000 C 129.761 79.604,129.197 81.142,129.080 81.417 C 128.963 81.692,128.552 82.817,128.166 83.917 C 127.335 86.281,126.445 88.750,126.211 89.333 C 126.119 89.563,125.874 90.237,125.666 90.833 C 124.665 93.704,123.122 97.948,122.986 98.206 C 122.902 98.365,122.833 98.534,122.833 98.581 C 122.833 98.628,129.022 98.667,136.587 98.667 L 150.340 98.667 150.524 98.208 C 150.846 97.406,150.930 97.178,152.835 91.917 C 153.863 89.075,154.803 86.525,154.923 86.250 C 155.043 85.975,155.325 85.203,155.550 84.535 C 155.775 83.866,156.006 83.272,156.063 83.215 C 156.120 83.158,156.167 83.004,156.167 82.872 C 156.167 82.741,156.270 82.397,156.396 82.109 C 156.522 81.820,157.355 79.558,158.248 77.083 C 159.141 74.608,159.937 72.433,160.016 72.250 C 160.363 71.451,161.333 68.790,161.333 68.636 C 161.333 68.543,161.435 68.231,161.558 67.942 C 161.841 67.282,162.352 65.904,162.834 64.500 C 163.254 63.278,165.235 59.126,165.554 58.798 C 165.669 58.680,165.925 58.317,166.124 57.993 C 166.322 57.668,166.620 57.242,166.784 57.046 C 166.949 56.851,167.308 56.404,167.582 56.054 C 175.013 46.564,190.045 41.893,193.300 48.063 C 193.878 49.160,193.954 51.969,193.446 53.500 C 192.901 55.143,191.796 58.238,191.562 58.775 C 191.436 59.064,191.333 59.355,191.333 59.422 C 191.333 59.570,189.049 65.873,188.729 66.609 C 188.603 66.897,188.500 67.193,188.500 67.265 C 188.500 67.422,185.731 75.016,185.398 75.775 C 185.271 76.064,185.167 76.364,185.168 76.442 C 185.169 76.604,182.913 82.812,182.564 83.609 C 182.437 83.897,182.333 84.224,182.333 84.333 C 182.333 84.443,182.229 84.769,182.101 85.058 C 181.757 85.837,179.497 92.060,179.499 92.225 C 179.499 92.303,179.396 92.603,179.268 92.891 C 178.873 93.785,177.333 98.089,177.333 98.300 C 177.333 98.454,180.488 98.500,191.003 98.500 L 204.672 98.500 204.910 97.958 C 205.262 97.158,208.999 86.920,209.006 86.739 C 209.009 86.653,209.156 86.283,209.333 85.917 C 209.510 85.550,209.658 85.149,209.661 85.025 C 209.664 84.902,209.772 84.564,209.900 84.275 C 210.028 83.986,211.047 81.237,212.164 78.167 C 213.281 75.096,214.348 72.171,214.535 71.667 C 215.102 70.139,215.262 69.701,216.422 66.500 C 219.808 57.159,224.144 51.959,231.850 48.000 C 243.164 42.186,251.350 46.037,247.260 55.250 C 247.138 55.525,246.870 56.237,246.665 56.833 C 246.460 57.429,245.625 59.754,244.809 62.000 C 243.994 64.246,242.871 67.358,242.315 68.917 C 241.758 70.475,241.234 71.900,241.151 72.083 C 241.067 72.267,240.702 73.267,240.338 74.306 C 239.285 77.319,237.812 81.371,237.563 81.942 C 237.436 82.231,237.333 82.547,237.333 82.645 C 237.333 82.742,237.225 83.068,237.092 83.369 C 236.960 83.670,236.464 85.004,235.991 86.333 C 234.952 89.253,234.523 90.414,234.225 91.109 C 234.101 91.397,233.999 91.697,233.999 91.775 C 233.998 91.853,233.473 93.335,232.832 95.068 C 232.191 96.801,231.667 98.432,231.667 98.693 L 231.667 99.167 245.152 99.167 L 258.638 99.167 259.061 98.042 C 260.598 93.953,261.333 91.931,261.333 91.793 C 261.333 91.705,261.438 91.397,261.565 91.109 C 261.886 90.381,264.167 84.088,264.167 83.929 C 264.167 83.858,264.271 83.564,264.398 83.275 C 264.525 82.986,265.277 80.950,266.070 78.750 C 266.862 76.550,267.650 74.375,267.821 73.917 C 267.991 73.458,268.632 71.696,269.244 70.000 C 269.855 68.304,270.501 66.565,270.678 66.136 C 270.855 65.706,271.000 65.268,271.000 65.161 C 271.000 65.054,271.104 64.731,271.230 64.442 C 271.580 63.645,273.835 57.437,273.834 57.275 C 273.834 57.197,273.937 56.897,274.065 56.609 C 275.289 53.826,276.588 49.672,276.909 47.512 C 278.329 37.944,272.434 31.334,261.222 29.922 C 256.035 29.269,247.214 30.027,242.833 31.502 C 242.604 31.579,241.854 31.803,241.167 32.001 C 239.317 32.532,235.940 33.690,235.758 33.856 C 235.671 33.935,235.509 34.000,235.399 34.000 C 235.023 34.000,228.440 37.191,227.000 38.072 C 226.679 38.268,226.229 38.520,226.000 38.631 C 225.312 38.966,223.756 39.864,223.667 39.977 C 223.495 40.195,222.505 40.643,222.440 40.532 C 222.403 40.468,222.320 40.154,222.256 39.833 C 221.557 36.319,216.553 31.997,211.528 30.568 C 205.710 28.913,196.634 29.147,189.167 31.146 C 188.479 31.330,187.579 31.571,187.167 31.682 C 186.754 31.792,186.342 31.937,186.250 32.005 C 186.158 32.073,185.832 32.182,185.524 32.248 C 182.859 32.818,175.433 36.264,170.083 39.413 C 168.510 40.338,168.167 40.418,168.167 39.860 C 168.167 38.784,166.144 35.749,164.462 34.302 C 160.553 30.940,156.815 29.592,150.833 29.389 L 147.917 29.289 147.417 30.770 M43.917 29.811 L 43.417 29.937 43.917 30.046 C 45.198 30.325,45.765 30.363,46.962 30.249 C 48.036 30.147,48.181 30.100,47.833 29.967 C 47.287 29.757,44.556 29.649,43.917 29.811 M324.833 29.853 C 323.962 29.930,322.387 30.068,321.333 30.160 C 312.403 30.940,303.391 33.319,298.333 36.229 C 297.921 36.467,297.419 36.734,297.217 36.823 C 294.115 38.195,289.761 42.640,287.820 46.417 C 283.861 54.121,286.016 60.865,293.917 65.490 C 296.719 67.130,298.128 67.885,302.083 69.865 C 313.852 75.757,315.725 77.261,315.458 80.595 C 315.234 83.377,313.182 85.658,309.639 87.063 C 305.287 88.787,295.393 88.951,282.667 87.510 C 279.916 87.198,278.819 87.043,275.000 86.428 C 272.518 86.028,272.840 85.794,271.752 88.792 C 271.228 90.235,270.732 91.547,270.650 91.706 C 270.567 91.865,270.500 92.067,270.500 92.154 C 270.500 92.240,270.415 92.523,270.311 92.781 C 270.144 93.194,269.175 95.877,269.169 95.942 C 269.168 95.955,269.710 96.083,270.375 96.225 C 275.570 97.338,281.914 98.109,290.500 98.670 C 296.523 99.064,308.891 98.698,313.167 98.000 C 313.762 97.903,314.662 97.757,315.167 97.677 C 332.417 94.924,342.587 87.747,344.588 76.917 C 345.380 72.630,343.433 67.952,339.667 65.095 C 337.502 63.453,335.687 62.432,328.167 58.627 C 316.372 52.659,314.313 50.790,315.339 46.977 C 316.778 41.636,327.058 38.747,340.167 40.000 C 341.129 40.092,343.117 40.279,344.583 40.416 C 346.050 40.553,348.037 40.774,349.000 40.908 C 351.510 41.257,355.111 41.807,356.083 41.990 C 357.913 42.334,357.992 42.291,358.509 40.667 C 358.611 40.346,358.762 39.933,358.846 39.750 C 359.159 39.061,361.508 32.619,361.462 32.573 C 361.418 32.529,360.416 32.336,357.083 31.728 C 356.350 31.595,354.986 31.379,354.052 31.249 C 353.118 31.118,352.181 30.971,351.969 30.922 C 351.427 30.796,346.847 30.349,344.167 30.161 C 342.929 30.074,340.856 29.927,339.559 29.835 C 336.800 29.638,327.127 29.650,324.833 29.853 M18.583 33.055 C 19.400 33.266,19.658 33.269,19.453 33.064 C 19.396 33.007,18.990 32.933,18.550 32.900 L 17.750 32.839 18.583 33.055 M83.999 34.375 C 83.997 35.548,83.668 37.215,83.324 37.801 C 82.993 38.364,82.881 39.333,83.147 39.333 C 83.659 39.333,84.327 37.097,84.331 35.372 L 84.333 34.327 85.042 34.681 C 85.431 34.876,86.040 35.309,86.395 35.643 C 86.798 36.022,86.975 36.121,86.865 35.906 C 86.520 35.235,84.579 33.667,84.092 33.667 C 84.041 33.667,83.999 33.985,83.999 34.375 M62.397 34.486 C 61.547 34.872,60.959 35.629,60.539 36.878 C 60.132 38.089,60.328 38.012,58.583 37.648 C 57.758 37.475,56.746 37.265,56.333 37.180 C 49.815 35.840,41.447 37.361,36.373 40.807 C 31.480 44.129,27.629 50.204,26.055 57.083 C 25.603 59.058,25.611 65.947,26.068 68.043 C 26.467 69.873,26.609 69.840,26.260 68.000 C 24.217 57.232,30.020 44.818,39.250 40.208 C 45.066 37.303,53.608 36.717,60.353 38.760 C 60.552 38.820,60.652 38.697,60.731 38.296 C 61.075 36.550,62.145 35.384,64.163 34.553 L 65.083 34.175 64.083 34.174 C 63.462 34.174,62.824 34.292,62.397 34.486 M72.547 35.075 C 71.661 35.487,71.335 35.995,71.566 36.599 C 71.652 36.823,71.761 36.785,72.237 36.367 C 72.549 36.093,73.070 35.781,73.394 35.674 C 73.941 35.494,73.970 35.450,73.798 35.073 C 73.573 34.578,73.614 34.578,72.547 35.075 M76.628 35.172 C 75.139 35.777,74.491 36.281,74.656 36.707 C 74.825 37.144,74.960 37.132,75.799 36.611 C 76.836 35.966,77.870 35.634,78.875 35.623 C 79.883 35.612,80.000 35.524,79.571 35.095 C 79.204 34.728,77.620 34.769,76.628 35.172 M21.059 35.166 C 20.532 35.378,20.452 35.604,20.594 36.470 C 20.714 37.197,20.730 37.216,20.821 36.752 C 20.885 36.429,21.080 36.176,21.376 36.034 C 21.853 35.806,21.900 35.702,21.732 35.264 C 21.619 34.968,21.566 34.961,21.059 35.166 M80.967 36.042 C 80.628 36.340,80.085 36.940,79.760 37.375 L 79.169 38.167 79.667 37.958 C 80.676 37.537,82.185 36.295,82.133 35.930 C 82.057 35.405,81.647 35.444,80.967 36.042 M26.169 36.367 C 26.162 37.158,25.465 37.833,24.656 37.833 C 23.966 37.833,23.518 40.516,24.143 40.902 C 24.210 40.943,24.235 40.727,24.199 40.423 C 24.089 39.484,24.588 38.683,25.359 38.560 C 26.343 38.403,26.879 37.178,26.333 36.333 C 26.194 36.118,26.171 36.123,26.169 36.367 M12.833 37.155 C 12.510 37.249,12.640 37.296,13.417 37.365 C 13.967 37.414,14.557 37.513,14.728 37.585 C 15.004 37.702,15.017 37.677,14.847 37.359 C 14.644 36.980,13.745 36.889,12.833 37.155 M29.917 37.417 C 29.642 37.539,29.004 38.021,28.500 38.488 L 27.583 39.336 28.583 38.911 C 29.133 38.678,29.882 38.190,30.248 37.827 C 30.928 37.150,30.819 37.015,29.917 37.417 M62.474 40.459 C 63.725 42.231,65.821 42.774,68.099 41.917 C 69.312 41.460,70.002 41.402,70.817 41.686 C 71.219 41.826,71.533 41.821,72.092 41.664 C 72.768 41.475,72.942 41.496,74.068 41.895 C 75.334 42.345,76.000 42.445,76.000 42.187 C 76.000 41.647,72.415 40.564,71.654 40.875 C 71.195 41.062,70.963 41.058,70.164 40.850 C 69.267 40.617,69.160 40.623,68.150 40.975 C 65.448 41.916,64.350 41.798,62.651 40.383 L 62.092 39.917 62.474 40.459 M16.000 40.827 C 16.000 41.066,16.175 41.201,16.655 41.330 C 17.115 41.454,17.650 41.847,18.447 42.647 C 19.401 43.603,19.784 43.861,20.833 44.250 C 21.521 44.506,22.177 44.788,22.292 44.878 C 22.419 44.978,22.500 44.980,22.500 44.883 C 22.500 44.538,21.680 43.991,20.291 43.410 C 18.885 42.821,18.278 42.393,17.579 41.494 C 16.885 40.603,16.000 40.229,16.000 40.827 M42.571 40.883 C 41.865 41.264,41.370 41.776,39.797 43.750 C 37.802 46.255,36.906 47.859,37.032 48.705 C 37.077 49.008,37.174 48.901,37.519 48.167 C 38.032 47.077,39.514 45.045,41.470 42.750 C 42.252 41.833,43.002 40.952,43.138 40.792 C 43.449 40.425,43.404 40.432,42.571 40.883 M82.099 42.083 C 81.894 43.516,81.494 44.371,80.620 45.250 C 79.880 45.993,79.320 47.000,79.646 47.000 C 81.104 47.000,82.919 43.549,82.383 41.793 L 82.218 41.250 82.099 42.083 M25.734 41.965 C 24.730 42.518,22.838 45.117,22.963 45.770 C 23.031 46.124,23.125 46.042,23.790 45.043 C 24.204 44.424,24.852 43.542,25.232 43.083 C 26.549 41.493,26.535 41.524,25.734 41.965 M69.333 43.776 C 69.012 43.913,68.337 44.423,67.833 44.908 C 62.583 49.961,56.137 52.256,45.580 52.831 C 42.640 52.991,41.665 53.214,41.351 53.800 C 41.046 54.371,41.376 54.520,42.125 54.149 C 42.685 53.872,43.330 53.777,45.451 53.661 C 55.545 53.108,61.805 51.095,66.840 46.782 C 67.705 46.040,70.176 43.460,69.969 43.514 C 69.940 43.521,69.654 43.639,69.333 43.776 M76.290 43.949 C 75.945 44.039,74.233 45.167,74.442 45.167 C 74.520 45.167,75.108 45.055,75.750 44.920 C 76.392 44.784,77.460 44.671,78.125 44.670 C 79.384 44.667,79.539 44.571,79.029 44.109 C 78.733 43.842,77.073 43.744,76.290 43.949 M390.083 46.176 C 386.457 46.310,382.231 46.592,380.167 46.836 C 379.387 46.929,378.075 47.077,377.250 47.167 C 372.141 47.723,365.644 48.778,365.343 49.101 C 365.266 49.183,364.811 50.337,364.333 51.667 C 363.854 52.996,363.364 54.308,363.244 54.583 C 363.124 54.858,362.971 55.303,362.904 55.572 C 362.837 55.841,362.681 56.254,362.559 56.489 C 362.436 56.724,362.335 56.983,362.334 57.064 C 362.333 57.231,360.077 63.475,359.729 64.275 C 359.603 64.564,359.500 64.905,359.500 65.034 C 359.500 65.162,359.434 65.338,359.353 65.425 C 359.273 65.512,359.114 65.883,359.000 66.250 C 358.690 67.250,355.493 76.039,355.318 76.373 C 355.235 76.532,355.167 76.746,355.167 76.848 C 355.167 76.950,355.064 77.269,354.938 77.558 C 354.579 78.383,351.664 86.400,351.665 86.558 C 351.666 86.636,351.563 86.936,351.436 87.225 C 351.159 87.855,348.412 95.407,348.244 96.000 C 348.179 96.229,348.067 96.492,347.996 96.583 C 347.924 96.675,347.779 97.073,347.674 97.469 C 347.568 97.864,347.440 98.295,347.390 98.427 C 347.310 98.634,349.167 98.667,361.107 98.666 L 374.917 98.666 375.642 96.625 C 376.041 95.502,376.436 94.433,376.518 94.250 C 376.601 94.067,377.014 92.942,377.435 91.750 C 378.413 88.987,379.236 86.713,379.478 86.114 C 379.582 85.856,379.667 85.542,379.667 85.416 C 379.667 85.290,379.733 85.145,379.815 85.095 C 379.896 85.044,380.013 84.796,380.074 84.543 C 380.203 84.009,382.425 77.836,382.768 77.058 C 382.896 76.769,383.000 76.475,383.000 76.404 C 383.000 76.246,385.280 69.953,385.602 69.225 C 385.729 68.936,385.833 68.620,385.833 68.522 C 385.833 68.425,385.940 68.098,386.071 67.797 C 386.354 67.145,388.418 61.430,388.586 60.833 C 388.651 60.604,388.800 60.192,388.917 59.917 C 389.035 59.642,389.448 58.517,389.834 57.417 C 390.221 56.317,390.605 55.267,390.686 55.083 C 390.768 54.900,391.178 53.775,391.599 52.583 C 392.495 50.041,393.378 47.609,393.644 46.947 C 393.912 46.284,393.879 45.995,393.542 46.029 C 393.381 46.045,391.825 46.111,390.083 46.176 M70.167 48.526 C 64.886 52.807,59.530 55.063,52.786 55.847 C 50.584 56.103,46.725 55.960,45.455 55.576 C 44.384 55.252,44.047 55.364,44.642 55.846 C 46.529 57.377,54.427 57.019,60.083 55.146 C 64.369 53.727,69.408 50.470,71.192 47.965 C 71.635 47.343,71.607 47.358,70.167 48.526 M23.390 50.804 C 22.270 51.690,21.667 52.526,21.667 53.193 L 21.667 53.741 22.816 52.601 C 24.555 50.875,24.979 49.548,23.390 50.804 M64.667 55.360 C 56.037 59.433,48.507 60.042,40.181 57.342 C 37.762 56.558,36.538 56.807,36.919 58.006 L 37.032 58.362 37.275 58.014 C 37.630 57.507,38.723 57.562,40.559 58.179 C 49.345 61.129,59.773 59.820,65.833 55.005 C 66.394 54.560,66.308 54.586,64.667 55.360 M64.690 58.245 C 64.733 58.288,65.649 58.628,66.727 58.999 C 68.642 59.660,69.704 60.196,70.458 60.883 C 71.047 61.420,70.897 60.904,70.258 60.197 C 69.313 59.152,66.979 58.167,65.446 58.167 C 64.987 58.167,64.646 58.202,64.690 58.245 M39.333 59.582 C 39.333 59.873,40.786 61.437,41.635 62.060 C 44.889 64.449,50.270 65.614,55.170 64.992 C 57.397 64.708,56.892 64.602,52.083 64.343 C 46.344 64.034,42.999 62.896,40.312 60.339 C 39.774 59.827,39.333 59.486,39.333 59.582 M35.503 60.254 C 35.501 60.348,35.835 61.013,36.246 61.733 C 38.955 66.487,43.030 69.544,47.583 70.238 C 48.152 70.325,48.079 70.269,47.083 69.856 C 41.190 67.408,38.240 65.043,35.992 60.965 C 35.725 60.480,35.505 60.160,35.503 60.254 M71.262 63.095 C 70.975 63.382,70.950 63.508,71.100 63.899 C 71.187 64.127,71.228 64.129,71.445 63.912 C 71.909 63.448,74.754 63.772,76.037 64.436 L 76.518 64.684 76.267 64.199 C 75.765 63.229,71.966 62.391,71.262 63.095 M65.997 63.579 C 67.368 64.997,71.702 65.989,71.238 64.778 C 71.165 64.589,70.936 64.500,70.524 64.499 C 69.412 64.497,68.062 64.198,67.151 63.750 C 65.448 62.914,65.339 62.898,65.997 63.579 M64.634 65.450 C 65.319 66.420,67.101 67.745,68.183 68.089 C 68.947 68.331,68.174 67.554,67.118 67.018 C 66.530 66.719,65.646 66.124,65.153 65.696 C 64.372 65.016,64.306 64.985,64.634 65.450 M21.846 66.792 C 21.605 67.695,21.578 68.538,21.778 68.895 C 21.922 69.153,21.972 69.055,22.069 68.324 C 22.133 67.839,22.261 67.302,22.352 67.132 C 22.531 66.797,22.407 66.167,22.162 66.167 C 22.080 66.167,21.938 66.448,21.846 66.792 M72.548 67.780 L 70.513 67.843 70.403 68.433 C 70.230 69.354,70.553 69.931,70.809 69.158 L 71.003 68.570 74.960 68.582 C 79.313 68.596,79.889 68.704,81.302 69.775 C 81.909 70.236,81.913 70.237,81.650 69.829 C 80.517 68.079,78.382 67.599,72.548 67.780 M85.958 68.178 C 85.330 68.510,85.111 69.000,85.591 69.000 C 85.857 69.000,86.667 68.229,86.667 67.976 C 86.667 67.796,86.699 67.787,85.958 68.178 M62.287 68.583 C 64.837 72.188,70.044 73.669,74.759 72.132 L 75.917 71.754 74.833 71.669 C 74.237 71.622,73.112 71.680,72.333 71.799 C 68.777 72.339,65.510 71.408,63.099 69.167 C 62.450 68.564,62.090 68.305,62.287 68.583 M85.290 71.421 C 85.227 72.078,85.022 72.730,84.689 73.336 C 84.189 74.247,84.009 74.993,83.665 77.583 C 83.223 80.919,82.855 81.853,81.273 83.667 C 79.673 85.501,78.517 88.253,77.920 91.650 C 77.401 94.599,76.555 95.317,72.295 96.420 C 69.553 97.131,68.603 97.604,66.083 99.510 C 62.879 101.935,62.147 102.161,59.656 101.496 C 57.969 101.046,56.002 101.014,54.667 101.415 C 53.175 101.864,51.797 101.925,51.230 101.566 L 50.750 101.263 51.083 101.667 C 52.009 102.789,52.778 102.926,54.667 102.307 C 56.194 101.807,58.447 101.810,60.300 102.316 C 61.804 102.726,62.554 102.696,63.750 102.178 C 64.605 101.807,67.943 99.302,68.540 98.583 C 68.894 98.157,69.156 98.017,69.707 97.960 C 70.097 97.919,71.422 97.610,72.651 97.273 C 76.967 96.088,77.765 95.425,78.259 92.618 C 78.390 91.869,78.735 90.505,79.025 89.587 C 79.315 88.668,79.559 87.586,79.568 87.181 C 79.581 86.569,79.658 86.401,80.029 86.181 C 80.275 86.036,80.685 85.654,80.940 85.333 C 81.196 85.012,81.763 84.352,82.199 83.866 C 83.138 82.819,83.553 81.651,83.925 79.006 C 84.363 75.889,84.504 75.298,85.090 74.107 C 85.548 73.178,85.664 72.745,85.655 72.010 C 85.637 70.590,85.406 70.218,85.290 71.421 M39.833 71.786 C 36.647 72.149,35.300 73.282,34.277 76.460 C 33.650 78.404,33.125 79.594,32.850 79.693 C 32.757 79.726,32.782 79.921,32.909 80.156 L 33.128 80.562 33.462 79.906 C 33.646 79.545,34.020 78.537,34.293 77.667 C 35.181 74.835,35.603 74.209,37.155 73.423 C 37.985 73.002,40.107 72.500,41.055 72.500 C 42.271 72.500,42.713 72.328,42.397 71.978 C 42.114 71.666,41.378 71.611,39.833 71.786 M27.628 75.897 C 28.215 76.657,29.510 78.022,30.416 78.836 C 31.675 79.967,30.970 79.131,29.007 77.167 C 28.045 76.204,27.425 75.633,27.628 75.897 M45.344 76.345 C 45.309 79.384,43.373 81.240,40.540 80.948 C 40.034 80.895,39.540 80.773,39.443 80.676 C 39.143 80.377,38.978 80.482,39.174 80.848 C 39.643 81.723,41.670 82.094,42.810 81.512 C 44.860 80.466,45.731 79.163,45.714 77.167 C 45.702 75.836,45.358 75.073,45.344 76.345 M85.625 75.717 C 84.910 75.917,84.874 76.001,85.325 76.410 C 85.637 76.692,85.682 76.689,86.395 76.344 C 87.923 75.604,87.438 75.209,85.625 75.717 M38.475 77.253 C 37.066 77.986,36.169 79.487,36.483 80.586 C 36.610 81.029,36.639 81.047,36.745 80.750 C 37.104 79.749,37.233 79.527,37.810 78.917 C 38.960 77.699,39.965 77.422,41.076 78.017 L 41.730 78.368 41.478 77.976 C 40.835 76.976,39.585 76.675,38.475 77.253 M51.948 77.571 C 50.905 77.852,50.673 78.078,51.047 78.452 C 51.313 78.718,51.362 78.704,51.873 78.210 C 52.172 77.921,52.604 77.611,52.833 77.520 C 53.424 77.285,52.898 77.316,51.948 77.571 M57.091 79.208 C 57.055 79.323,56.976 79.713,56.916 80.076 C 56.664 81.578,55.426 83.002,53.711 83.760 C 52.640 84.233,51.833 84.915,51.833 85.347 C 51.833 85.759,52.259 85.859,52.566 85.519 C 52.711 85.359,53.374 84.954,54.040 84.620 C 56.076 83.598,56.845 82.656,57.337 80.583 L 57.614 79.417 58.238 79.364 C 58.581 79.335,59.200 79.427,59.614 79.568 C 60.257 79.787,60.337 79.789,60.165 79.582 C 59.734 79.062,57.232 78.758,57.091 79.208 M52.583 80.193 C 52.521 80.526,52.098 81.416,51.645 82.170 C 50.722 83.705,50.719 83.722,51.418 83.427 C 52.332 83.043,53.389 80.535,52.913 79.883 C 52.718 79.617,52.685 79.648,52.583 80.193 M48.833 80.549 C 48.833 80.848,49.298 81.258,49.456 81.099 C 49.595 80.960,49.304 80.462,49.030 80.371 C 48.922 80.335,48.833 80.415,48.833 80.549 M45.593 81.060 C 45.353 81.582,45.634 86.445,45.984 87.833 C 46.157 88.521,46.305 88.971,46.312 88.833 C 46.319 88.696,46.243 88.246,46.143 87.833 C 46.043 87.421,45.911 85.658,45.848 83.917 C 45.778 81.943,45.682 80.867,45.593 81.060 M33.854 82.629 C 33.688 82.939,33.739 82.971,34.585 83.076 C 35.085 83.139,35.839 83.373,36.260 83.597 L 37.026 84.004 36.683 83.523 C 36.031 82.607,34.178 82.022,33.854 82.629 M36.003 85.284 C 35.998 85.955,35.623 86.491,34.933 86.816 C 34.557 86.992,33.688 87.400,33.000 87.722 C 31.384 88.479,31.049 88.775,30.904 89.573 L 30.785 90.229 31.549 89.603 C 31.969 89.258,33.086 88.640,34.032 88.229 C 36.232 87.271,36.904 86.308,36.167 85.167 C 36.035 84.964,36.005 84.986,36.003 85.284 M58.739 85.470 C 58.458 85.646,57.952 86.175,57.615 86.645 C 56.983 87.525,56.714 87.637,55.941 87.343 C 55.631 87.225,55.182 87.291,54.145 87.610 C 52.661 88.066,51.883 88.074,49.641 87.661 C 47.857 87.331,47.100 87.820,47.299 89.172 C 47.377 89.707,47.667 89.859,47.667 89.365 C 47.667 88.375,48.713 88.132,50.965 88.600 C 52.419 88.902,53.274 88.842,54.810 88.332 C 55.662 88.049,55.969 88.015,56.376 88.157 C 57.173 88.434,57.282 88.387,57.984 87.458 C 59.142 85.926,60.037 85.671,61.642 86.418 C 62.742 86.931,62.819 86.933,62.360 86.445 C 61.408 85.432,59.582 84.940,58.739 85.470 M81.667 87.860 C 81.438 87.953,80.893 87.988,80.457 87.939 C 79.724 87.855,79.676 87.872,79.828 88.157 C 80.203 88.858,81.736 88.911,82.967 88.266 L 83.395 88.042 82.989 87.924 C 82.209 87.698,82.080 87.692,81.667 87.860 M37.500 90.834 C 37.727 91.257,38.494 91.872,39.703 92.599 C 40.279 92.945,41.007 93.421,41.322 93.656 L 41.894 94.083 41.593 93.623 C 41.251 93.099,37.256 90.377,37.500 90.834 M41.568 95.288 C 41.431 95.970,41.447 95.959,39.182 96.933 C 37.411 97.694,37.259 97.796,36.977 98.417 C 36.575 99.300,36.583 99.651,36.993 99.130 C 37.195 98.874,38.179 98.343,39.565 97.743 C 41.885 96.738,41.996 96.643,41.995 95.667 C 41.995 94.934,41.693 94.667,41.568 95.288 M43.509 98.016 C 43.807 98.573,44.734 98.849,46.476 98.899 C 48.131 98.946,49.427 99.446,50.128 100.308 C 50.325 100.551,50.332 100.542,50.185 100.236 C 49.601 99.022,48.063 98.346,45.250 98.068 C 44.608 98.004,43.913 97.889,43.704 97.812 C 43.358 97.684,43.341 97.702,43.509 98.016 M68.668 100.277 C 68.665 100.803,71.195 103.360,71.458 103.097 C 71.657 102.898,71.257 102.352,70.672 102.023 C 70.311 101.820,69.712 101.300,69.342 100.869 C 68.972 100.437,68.668 100.170,68.668 100.277 M48.833 100.719 C 48.833 101.017,48.076 101.698,47.161 102.222 C 45.673 103.076,45.040 103.752,44.975 104.556 L 44.917 105.283 45.500 104.633 C 45.821 104.276,46.677 103.594,47.403 103.117 C 48.971 102.087,49.401 101.579,49.242 100.946 C 49.128 100.489,48.833 100.326,48.833 100.719 M56.793 104.974 C 55.302 106.521,55.035 106.969,55.318 107.455 C 55.427 107.642,55.492 107.668,55.495 107.528 C 55.498 107.406,56.137 106.643,56.917 105.833 C 57.948 104.761,58.333 104.244,58.333 103.930 C 58.333 103.352,58.400 103.307,56.793 104.974 " stroke="none" fill="#040404" fill-rule="evenodd"></path><path id="path3" d="M58.583 23.667 C 59.405 24.492,60.114 25.167,60.160 25.167 C 60.206 25.167,59.571 24.492,58.750 23.667 C 57.929 22.842,57.219 22.167,57.174 22.167 C 57.128 22.167,57.762 22.842,58.583 23.667 M52.250 23.667 C 52.193 23.758,52.170 23.839,52.198 23.846 C 52.747 23.982,52.841 23.960,52.656 23.737 C 52.422 23.455,52.385 23.449,52.250 23.667 M23.667 33.880 C 23.667 33.912,23.901 34.158,24.188 34.427 C 24.623 34.835,24.678 34.855,24.518 34.545 C 24.357 34.235,23.667 33.695,23.667 33.880 M13.708 36.948 C 13.869 36.990,14.131 36.990,14.292 36.948 C 14.452 36.906,14.321 36.872,14.000 36.872 C 13.679 36.872,13.548 36.906,13.708 36.948 M50.465 37.624 C 51.041 37.656,51.941 37.656,52.465 37.623 C 52.988 37.590,52.517 37.563,51.417 37.564 C 50.317 37.564,49.888 37.591,50.465 37.624 M27.834 38.916 C 27.619 39.145,27.493 39.382,27.555 39.444 C 27.616 39.505,27.667 39.464,27.667 39.351 C 27.667 39.235,27.756 39.199,27.875 39.267 C 27.990 39.333,28.027 39.325,27.958 39.249 C 27.889 39.173,27.957 38.973,28.109 38.805 C 28.529 38.341,28.280 38.441,27.834 38.916 M65.375 41.615 C 65.535 41.657,65.798 41.657,65.958 41.615 C 66.119 41.573,65.987 41.539,65.667 41.539 C 65.346 41.539,65.215 41.573,65.375 41.615 M18.124 42.182 C 18.237 42.328,18.295 42.483,18.251 42.527 C 18.207 42.570,18.452 42.863,18.794 43.178 L 19.417 43.750 18.872 43.156 C 18.573 42.829,18.368 42.521,18.418 42.471 C 18.467 42.421,18.375 42.276,18.212 42.149 C 17.950 41.943,17.940 41.946,18.124 42.182 M65.794 42.451 C 66.001 42.491,66.301 42.490,66.460 42.448 C 66.620 42.406,66.450 42.374,66.083 42.375 C 65.717 42.377,65.586 42.411,65.794 42.451 M70.000 43.510 C 70.000 43.607,69.906 43.632,69.792 43.566 C 69.677 43.501,69.641 43.510,69.712 43.588 C 69.782 43.665,69.558 44.034,69.212 44.406 C 68.755 44.900,68.822 44.859,69.459 44.256 C 70.393 43.373,70.423 43.333,70.167 43.333 C 70.075 43.333,70.000 43.413,70.000 43.510 M69.910 49.375 L 69.083 50.250 69.958 49.423 C 70.440 48.968,70.833 48.574,70.833 48.548 C 70.833 48.424,70.679 48.562,69.910 49.375 M21.527 53.208 C 21.498 53.887,21.663 53.999,22.021 53.542 C 22.227 53.280,22.221 53.272,21.970 53.469 C 21.721 53.664,21.682 53.626,21.621 53.136 L 21.553 52.583 21.527 53.208 M49.121 56.954 C 49.417 56.990,49.942 56.991,50.288 56.955 C 50.634 56.919,50.392 56.889,49.750 56.888 C 49.108 56.887,48.825 56.917,49.121 56.954 M34.908 59.558 C 34.845 59.810,34.840 60.062,34.897 60.119 C 34.953 60.176,35.001 60.041,35.003 59.819 C 35.005 59.498,35.038 59.467,35.167 59.667 C 35.256 59.804,35.328 59.842,35.328 59.750 C 35.328 59.261,35.018 59.120,34.908 59.558 M48.377 59.786 C 48.631 59.825,49.006 59.824,49.211 59.784 C 49.416 59.744,49.208 59.713,48.750 59.714 C 48.292 59.716,48.124 59.748,48.377 59.786 M51.958 59.784 C 52.165 59.824,52.502 59.824,52.708 59.784 C 52.915 59.745,52.746 59.712,52.333 59.712 C 51.921 59.712,51.752 59.745,51.958 59.784 M25.563 62.500 C 25.563 63.554,25.590 63.985,25.623 63.458 C 25.656 62.931,25.656 62.069,25.623 61.542 C 25.590 61.015,25.563 61.446,25.563 62.500 M65.597 63.144 C 65.548 63.224,65.675 63.430,65.879 63.603 L 66.250 63.917 65.948 63.559 C 65.715 63.283,65.696 63.181,65.865 63.114 C 66.011 63.055,66.018 63.022,65.885 63.013 C 65.776 63.006,65.646 63.065,65.597 63.144 M56.571 64.687 C 56.999 64.787,57.285 64.782,57.396 64.670 C 57.512 64.554,57.303 64.505,56.742 64.517 L 55.917 64.533 56.571 64.687 M64.250 64.913 C 64.433 65.060,64.571 65.234,64.556 65.299 C 64.540 65.364,64.553 65.442,64.585 65.474 C 64.616 65.505,64.623 65.403,64.600 65.247 C 64.577 65.090,64.414 64.891,64.237 64.804 C 63.941 64.657,63.942 64.665,64.250 64.913 M73.708 67.782 C 73.869 67.823,74.131 67.823,74.292 67.782 C 74.452 67.740,74.321 67.705,74.000 67.705 C 73.679 67.705,73.548 67.740,73.708 67.782 M85.230 68.575 C 85.117 68.869,85.280 69.168,85.552 69.164 C 85.680 69.162,85.668 69.110,85.517 69.014 C 85.389 68.933,85.331 68.747,85.387 68.600 C 85.443 68.453,85.452 68.333,85.406 68.333 C 85.360 68.333,85.281 68.442,85.230 68.575 M73.875 68.621 C 74.219 68.657,74.781 68.657,75.125 68.621 C 75.469 68.585,75.188 68.556,74.500 68.556 C 73.813 68.556,73.531 68.585,73.875 68.621 M77.042 68.615 C 77.202 68.657,77.465 68.657,77.625 68.615 C 77.785 68.573,77.654 68.539,77.333 68.539 C 77.012 68.539,76.881 68.573,77.042 68.615 M63.250 69.833 C 63.608 70.200,63.938 70.500,63.984 70.500 C 64.030 70.500,63.775 70.200,63.417 69.833 C 63.059 69.467,62.728 69.167,62.682 69.167 C 62.637 69.167,62.892 69.467,63.250 69.833 M85.709 71.917 C 85.711 72.283,85.745 72.414,85.785 72.206 C 85.824 71.999,85.823 71.699,85.781 71.540 C 85.739 71.380,85.707 71.550,85.709 71.917 M42.282 71.911 L 42.750 72.323 42.333 72.341 C 42.104 72.351,42.013 72.398,42.130 72.446 C 42.674 72.664,42.897 72.339,42.496 71.912 C 42.283 71.686,42.042 71.500,41.962 71.500 C 41.881 71.500,42.025 71.685,42.282 71.911 M74.127 71.618 C 74.334 71.658,74.634 71.656,74.794 71.615 C 74.953 71.573,74.783 71.540,74.417 71.542 C 74.050 71.544,73.920 71.578,74.127 71.618 M69.542 72.782 C 69.702 72.823,69.965 72.823,70.125 72.782 C 70.285 72.740,70.154 72.705,69.833 72.705 C 69.512 72.705,69.381 72.740,69.542 72.782 M71.460 72.785 C 71.668 72.824,71.968 72.823,72.127 72.781 C 72.286 72.739,72.117 72.707,71.750 72.709 C 71.383 72.711,71.253 72.745,71.460 72.785 M25.849 73.500 C 26.332 74.248,26.333 74.250,26.333 74.069 C 26.332 73.985,26.138 73.692,25.902 73.417 L 25.472 72.917 25.849 73.500 M30.968 76.083 C 31.053 76.267,31.163 76.529,31.214 76.667 C 31.294 76.883,31.309 76.881,31.320 76.657 C 31.327 76.514,31.217 76.251,31.074 76.074 C 30.819 75.755,30.817 75.755,30.968 76.083 M28.273 76.630 C 28.221 76.714,28.393 76.987,28.654 77.238 C 28.916 77.489,29.175 77.621,29.230 77.533 C 29.335 77.363,29.034 77.038,28.750 77.014 C 28.658 77.006,28.583 76.931,28.583 76.847 C 28.583 76.607,28.376 76.462,28.273 76.630 M29.833 78.354 C 29.833 78.639,30.809 79.340,30.925 79.139 C 30.996 79.017,30.990 78.974,30.913 79.044 C 30.836 79.114,30.562 78.969,30.303 78.721 C 30.045 78.474,29.833 78.308,29.833 78.354 M57.105 78.965 C 57.060 79.038,57.299 79.071,57.637 79.039 C 58.667 78.941,58.789 78.873,57.968 78.853 C 57.538 78.842,57.150 78.893,57.105 78.965 M83.872 79.333 C 83.872 79.654,83.906 79.785,83.948 79.625 C 83.990 79.465,83.990 79.202,83.948 79.042 C 83.906 78.881,83.872 79.012,83.872 79.333 M45.567 80.859 C 45.497 80.973,45.521 81.006,45.628 80.940 C 45.727 80.879,45.843 80.961,45.885 81.123 C 45.943 81.346,45.966 81.327,45.981 81.042 C 46.001 80.643,45.765 80.539,45.567 80.859 M45.892 84.583 C 45.892 85.408,45.920 85.767,45.955 85.380 C 45.990 84.993,45.990 84.318,45.956 83.880 C 45.922 83.442,45.893 83.758,45.892 84.583 M81.740 84.375 L 81.250 84.917 81.792 84.427 C 82.297 83.971,82.410 83.833,82.281 83.833 C 82.252 83.833,82.009 84.077,81.740 84.375 M36.372 86.000 C 36.372 86.321,36.406 86.452,36.448 86.292 C 36.490 86.131,36.490 85.869,36.448 85.708 C 36.406 85.548,36.372 85.679,36.372 86.000 M31.246 89.837 C 31.013 90.095,30.909 90.124,30.806 89.962 C 30.717 89.821,30.671 89.885,30.669 90.156 L 30.667 90.562 31.167 90.083 C 31.442 89.820,31.667 89.581,31.667 89.552 C 31.667 89.430,31.533 89.521,31.246 89.837 M44.859 104.823 C 44.880 105.185,44.943 105.452,45.000 105.417 C 45.111 105.348,45.009 104.167,44.892 104.167 C 44.852 104.167,44.837 104.462,44.859 104.823 M57.242 105.542 L 56.583 106.250 57.292 105.591 C 57.950 104.978,58.077 104.833,57.950 104.833 C 57.923 104.833,57.605 105.152,57.242 105.542 " stroke="none" fill="#5d282a" fill-rule="evenodd"></path><path id="path4" d="M58.417 23.000 C 59.053 23.642,59.612 24.167,59.658 24.167 C 59.704 24.167,59.220 23.642,58.583 23.000 C 57.947 22.358,57.388 21.833,57.342 21.833 C 57.296 21.833,57.780 22.358,58.417 23.000 M51.493 22.708 C 52.184 23.444,52.333 23.577,52.333 23.451 C 52.333 23.425,51.977 23.068,51.542 22.660 L 50.750 21.917 51.493 22.708 M47.917 30.167 C 47.455 30.284,47.449 30.295,47.833 30.311 C 48.063 30.321,48.362 30.256,48.500 30.167 C 48.784 29.983,48.637 29.983,47.917 30.167 M83.833 34.083 C 83.833 34.404,83.863 34.667,83.898 34.667 C 83.934 34.667,83.994 34.404,84.032 34.083 C 84.069 33.762,84.040 33.500,83.967 33.500 C 83.893 33.500,83.833 33.762,83.833 34.083 M81.209 40.417 C 81.211 40.783,81.245 40.914,81.285 40.706 C 81.324 40.499,81.323 40.199,81.281 40.040 C 81.239 39.880,81.207 40.050,81.209 40.417 M77.458 43.784 C 77.665 43.824,78.002 43.824,78.208 43.784 C 78.415 43.745,78.246 43.712,77.833 43.712 C 77.421 43.712,77.252 43.745,77.458 43.784 M45.875 52.782 C 46.035 52.823,46.298 52.823,46.458 52.782 C 46.619 52.740,46.487 52.705,46.167 52.705 C 45.846 52.705,45.715 52.740,45.875 52.782 M37.875 56.782 C 38.035 56.823,38.298 56.823,38.458 56.782 C 38.619 56.740,38.487 56.705,38.167 56.705 C 37.846 56.705,37.715 56.740,37.875 56.782 M49.792 58.954 C 50.090 58.991,50.577 58.991,50.875 58.954 C 51.173 58.917,50.929 58.887,50.333 58.887 C 49.737 58.887,49.494 58.917,49.792 58.954 M50.542 64.282 C 50.702 64.323,50.965 64.323,51.125 64.282 C 51.285 64.240,51.154 64.205,50.833 64.205 C 50.512 64.205,50.381 64.240,50.542 64.282 M70.417 64.333 L 69.583 64.448 70.365 64.474 C 70.795 64.488,71.193 64.425,71.250 64.333 C 71.307 64.242,71.330 64.178,71.302 64.193 C 71.273 64.207,70.875 64.270,70.417 64.333 M25.539 64.833 C 25.539 65.154,25.573 65.285,25.615 65.125 C 25.657 64.965,25.657 64.702,25.615 64.542 C 25.573 64.381,25.539 64.512,25.539 64.833 M71.208 67.789 C 71.644 67.824,72.356 67.824,72.792 67.789 C 73.227 67.755,72.871 67.727,72.000 67.727 C 71.129 67.727,70.773 67.755,71.208 67.789 M70.127 71.951 C 70.334 71.991,70.634 71.990,70.794 71.948 C 70.953 71.906,70.783 71.874,70.417 71.875 C 70.050 71.877,69.920 71.911,70.127 71.951 M45.885 82.250 C 45.886 82.800,45.917 83.005,45.954 82.705 C 45.991 82.406,45.990 81.956,45.952 81.705 C 45.914 81.455,45.884 81.700,45.885 82.250 M61.042 101.782 C 61.202 101.823,61.465 101.823,61.625 101.782 C 61.785 101.740,61.654 101.705,61.333 101.705 C 61.012 101.705,60.881 101.740,61.042 101.782 M56.073 105.542 L 55.583 106.083 56.125 105.594 C 56.630 105.138,56.743 105.000,56.615 105.000 C 56.586 105.000,56.342 105.244,56.073 105.542 " stroke="none" fill="#7c7c7c" fill-rule="evenodd"></path></g></svg>